<svg width="100" height="54" viewBox="0 0 100 54" fill="none" xmlns="http://www.w3.org/2000/svg">
<g clip-path="url(#clip0_20350_8935)">
<path d="M10.1138 40.935C10.1138 40.935 9.64128 40.5675 9.13128 40.35C8.62128 40.1363 7.88628 39.885 6.36753 39.5138C6.16128 39.465 5.96253 39.42 5.77128 39.3713C4.75503 39.1163 3.95253 38.775 3.38628 38.3513C2.82378 37.8675 2.61378 37.4663 2.64003 36.9188C2.66628 36.345 3.01128 35.7825 3.61128 35.3438C4.29753 34.8375 5.29878 34.5825 6.42753 34.6313C7.71003 34.6875 8.68878 35.3288 9.74253 36.0975L9.84378 36.1725L11.1713 34.9388C11.01 34.7888 10.98 34.7625 10.5375 34.4588C9.49503 33.7538 8.21628 33.0075 6.50253 32.9325C5.01003 32.8688 3.68253 33.1725 2.65128 33.8175C1.53378 34.5713 0.828779 35.67 0.813779 36.8363C0.802529 37.7025 0.982529 38.5163 1.84878 39.3525C2.88378 40.35 4.49628 40.875 5.97378 41.1638C7.23753 41.4075 8.40753 41.8763 8.99628 42.3638C9.70128 43.0088 9.94878 43.4775 9.94878 44.1488C9.92253 44.79 9.50253 45.405 8.78253 45.84C8.06253 46.3763 7.03503 46.6575 5.96253 46.6125C4.55253 46.5525 3.09003 45.9338 1.62003 44.7825L1.51878 44.7038L0.217529 45.8963L0.348779 46.0088C2.06253 47.4863 3.92253 48.2925 5.88753 48.405C7.35753 48.4688 8.64003 48.12 9.80628 47.3363C11.0175 46.5 11.685 45.4238 11.7375 44.2313C11.7938 42.96 11.1675 41.6963 10.1063 40.9313L10.1138 40.935Z" fill="#E90130"/>
<path d="M21.7988 48.3937C24 48.3937 26.0438 47.4225 27.4688 45.7087V48.4125H29.2913V32.9175H27.4688V35.5725C26.055 33.8812 24.015 32.9175 21.7988 32.9175C17.6663 32.9175 14.3063 36.375 14.3063 40.6237C14.3063 44.8725 17.6663 48.3937 21.7988 48.3937ZM16.1288 40.6237C16.1288 37.38 18.6713 34.74 21.7988 34.74C24.9263 34.74 27.4688 37.38 27.4688 40.6237V40.8675C27.345 44.0662 24.855 46.575 21.7988 46.575C18.6713 46.575 16.1288 43.905 16.1288 40.6275V40.6237Z" fill="#E90130"/>
<path d="M49.0687 40.6237C49.0687 36.375 45.7087 32.9175 41.5762 32.9175C39.3637 32.9175 37.32 33.8775 35.9062 35.5725V32.9175H34.0837V54H35.9062V45.7125C37.3312 47.4225 39.3712 48.3975 41.5762 48.3975C45.7087 48.3975 49.0687 44.91 49.0687 40.6275V40.6237ZM41.5762 46.5712C38.52 46.5712 36.03 44.0662 35.9062 40.8637V40.62C35.9062 37.3762 38.4487 34.7362 41.5762 34.7362C44.7037 34.7362 47.2462 37.3762 47.2462 40.62C47.2462 43.9012 44.7037 46.5675 41.5762 46.5675V46.5712Z" fill="#E90130"/>
<path d="M54.255 32.9175H52.4325V48.4162H54.255V32.9175Z" fill="#E90130"/>
<path d="M53.3437 30.7051C53.985 30.7051 54.51 30.1801 54.51 29.5388C54.51 28.8976 53.9887 28.3726 53.3437 28.3726C52.6987 28.3726 52.1775 28.8976 52.1775 29.5388C52.1775 30.1801 52.7025 30.7051 53.3437 30.7051Z" fill="#E90130"/>
<path d="M70.4175 43.9574C69.4238 45.6037 67.605 46.6237 65.6663 46.6237C62.6513 46.6237 60.1688 44.2124 59.9438 41.1074H72.2288C72.7313 41.1074 73.125 40.7399 73.125 40.2749V40.1399C72.8025 36.0337 69.5963 32.9399 65.6663 32.9399C61.5188 32.9399 58.1438 36.4274 58.1438 40.7099C58.1438 44.9924 61.5188 48.4162 65.6663 48.4162C68.2013 48.4162 70.53 47.1149 71.91 44.9324L70.4175 43.9574ZM65.6663 34.7287C68.3363 34.7287 70.6275 36.6599 71.1788 39.3487H60.0638C60.675 36.6187 62.9513 34.7287 65.6663 34.7287Z" fill="#E90130"/>
<path d="M83.16 32.9175C81.4275 32.9175 79.7925 33.6225 78.6075 34.8675V32.9175H76.845V48.4162H78.6075V39.2362C78.6675 36.7387 80.7112 34.71 83.16 34.71C85.6087 34.71 87.6825 36.7387 87.6825 39.2325V48.4162H89.475V39.2325C89.475 35.7487 86.6437 32.9175 83.16 32.9175Z" fill="#E90130"/>
<path d="M98.8987 46.65L98.7187 46.6987C98.5462 46.7475 98.25 46.8037 97.8337 46.8037C97.0987 46.8037 96.7875 46.3387 96.7875 45.2475V34.695H98.9362V32.9137H96.7875V27.7087H94.92V32.9137H92.7562V34.695H94.92V45.3C94.92 46.4625 95.13 47.2237 95.5762 47.6887C95.9925 48.1612 96.6262 48.4125 97.4137 48.4125C98.0062 48.4125 98.5275 48.33 98.8875 48.1837L98.9887 48.1425L98.8987 46.65Z" fill="#E90130"/>
<path d="M14.985 12.255C14.985 8.00621 11.625 4.54871 7.4925 4.54871C5.28 4.54871 3.23625 5.50871 1.8225 7.20371V4.54871H0V25.6312H1.8225V17.3437C3.2475 19.0537 5.2875 20.0287 7.4925 20.0287C11.625 20.0287 14.985 16.5412 14.985 12.2587V12.255ZM7.4925 18.2025C4.43625 18.2025 1.94625 15.6975 1.8225 12.495V12.2512C1.8225 9.00746 4.365 6.36746 7.4925 6.36746C10.62 6.36746 13.1625 9.00746 13.1625 12.2512C13.1625 15.5325 10.62 18.1987 7.4925 18.1987V18.2025Z" fill="black"/>
<path d="M28.635 4.54871V13.7025C28.635 16.2262 26.6325 18.225 24.0825 18.2587C21.5625 18.2287 19.59 16.2262 19.59 13.7025V4.54871H17.7975V13.7025C17.7975 17.2012 20.6175 20.0475 24.0825 20.0475C27.5475 20.0475 30.4575 17.2012 30.4575 13.7025V4.54871H28.635Z" fill="black"/>
<path d="M41.5762 4.545C39.375 4.545 37.3312 5.51625 35.9062 7.23V0H34.0837V20.0475H35.9062V17.37C37.32 19.0612 39.36 20.025 41.5762 20.025C45.7087 20.025 49.0687 16.5675 49.0687 12.3187C49.0687 8.07 45.7087 4.54875 41.5762 4.54875V4.545ZM47.2462 12.315C47.2462 15.5587 44.7037 18.1987 41.5762 18.1987C38.4487 18.1987 35.9062 15.5587 35.9062 12.315V12.0712C36.03 8.8725 38.52 6.36375 41.5762 6.36375C44.6325 6.36375 47.2462 9.03375 47.2462 12.3112V12.315Z" fill="black"/>
<path d="M54.255 0H52.4325V20.0438H54.255V0Z" fill="black"/>
<path d="M61.4062 4.54871H59.5837V20.0475H61.4062V4.54871Z" fill="black"/>
<path d="M60.495 2.3325C61.1362 2.3325 61.6612 1.8075 61.6612 1.16625C61.6612 0.525 61.14 0 60.495 0C59.85 0 59.3287 0.525 59.3287 1.16625C59.3287 1.8075 59.8537 2.3325 60.495 2.3325Z" fill="black"/>
<path d="M76.8075 16.9012C75.7537 17.7262 74.415 18.225 72.96 18.225C69.585 18.225 66.84 15.5662 66.84 12.3C66.84 9.03374 69.585 6.37499 72.96 6.37499C74.4187 6.37499 75.7575 6.87374 76.8075 7.69874L78.105 6.40124C76.7175 5.24999 74.9212 4.55249 72.96 4.55249C68.5725 4.55249 65.0175 8.02124 65.0175 12.3C65.0175 16.5787 68.5725 20.0475 72.96 20.0475C74.925 20.0475 76.7212 19.35 78.105 18.1987L76.8075 16.9012Z" fill="black"/>
<path d="M84.2175 4.54871H82.395V20.0475H84.2175V4.54871Z" fill="black"/>
<path d="M83.3063 2.3325C83.9475 2.3325 84.4725 1.8075 84.4725 1.16625C84.4725 0.525 83.9513 0 83.3063 0C82.6613 0 82.14 0.525 82.14 1.16625C82.14 1.8075 82.665 2.3325 83.3063 2.3325Z" fill="black"/>
<path d="M97.7737 12.5662C97.7737 12.5662 97.3012 12.1987 96.7912 11.9812C96.2812 11.7675 95.5462 11.5162 94.0274 11.145C93.8212 11.0962 93.6224 11.0512 93.4312 11.0025C92.4149 10.7475 91.6124 10.4062 91.0462 9.98248C90.4837 9.49873 90.2737 9.09748 90.2999 8.54998C90.3262 7.97623 90.6712 7.41373 91.2712 6.97498C91.9574 6.46873 92.9587 6.21373 94.0874 6.26248C95.3699 6.31873 96.3487 6.95998 97.4024 7.72873L97.5037 7.80373L98.8312 6.56998C98.6699 6.41998 98.6399 6.39373 98.1974 6.08998C97.1549 5.38498 95.8762 4.63873 94.1624 4.56373C92.6699 4.49998 91.3424 4.80373 90.3112 5.44873C89.1937 6.20248 88.4887 7.30123 88.4737 8.46748C88.4624 9.33373 88.6424 10.1475 89.5087 10.9837C90.5437 11.9812 92.1562 12.5062 93.6337 12.795C94.8974 13.0387 96.0674 13.5075 96.6562 13.995C97.3612 14.64 97.6087 15.1087 97.6087 15.78C97.5824 16.4212 97.1624 17.0362 96.4424 17.4712C95.7224 18.0075 94.6949 18.2887 93.6224 18.2437C92.2124 18.1837 90.7499 17.565 89.2799 16.4137L89.1787 16.335L87.8774 17.5275L88.0087 17.64C89.7224 19.1175 91.5824 19.9237 93.5474 20.0362C95.0174 20.1 96.2999 19.7512 97.4662 18.9675C98.6774 18.1312 99.3449 17.055 99.3974 15.8625C99.4537 14.5912 98.8274 13.3275 97.7662 12.5625L97.7737 12.5662Z" fill="black"/>
</g>
<defs>
<clipPath id="clip0_20350_8935">
<rect width="99.4088" height="54" fill="white"/>
</clipPath>
</defs>
</svg>
