<svg width="106" height="35" viewBox="0 0 106 35" fill="none" xmlns="http://www.w3.org/2000/svg">
<g clip-path="url(#clip0_275_1200)">
<path d="M60.363 14.6904V15.8106H63.7206L59.9269 28.7508H59.83L55.2553 14.6904H53.6506L49.2726 28.7508H49.1757L45.2366 15.8106H48.104V14.6904H38.7637V15.8106H41.5398L47.132 34.5881H48.6883L53.1147 20.1886H53.2145L58.077 34.5881H59.4395L64.9376 15.8106H67.6112V14.6904H60.363Z" fill="#78777A"/>
<path d="M75.2898 6.99697C75.2898 5.69725 74.2381 4.64551 72.9384 4.64551C71.6387 4.64551 70.5869 5.69725 70.5869 6.99697C70.5869 8.29669 71.6387 9.34844 72.9384 9.34844C74.2381 9.34844 75.2898 8.29669 75.2898 6.99697ZM77.7952 33.9548V32.8375H74.925V14.2053C73.1749 14.6442 71.2767 14.6927 69.4782 14.6927H68.8169V15.8128H71.1313V32.8403H67.8706V33.9576H77.7952V33.9548Z" fill="#78777A"/>
<path d="M97.2568 30.6972V15.8102H101.538V14.6901H97.2568V8.51357C96.0426 8.70738 94.8256 8.70738 93.56 8.70738V14.6872H86.0639V9.19193C86.0639 4.32653 87.5716 1.50477 89.906 1.50477C90.248 1.50477 91.0746 1.55322 91.0746 1.7955C91.0746 2.42825 90.687 2.47671 90.687 3.01256C90.687 4.32653 91.3653 5.25001 92.6793 5.25001C93.5087 5.25001 94.4807 4.61726 94.4807 3.64532C94.4807 1.35941 92.2917 0.484375 90.3934 0.484375C85.7247 0.484375 82.2702 3.98735 82.2702 12.3044V14.6872H78.5249V15.8074H82.2702V32.8349H78.5249V33.9522H90.0058V32.8349H86.0667V15.8159H93.4631V30.3551C93.4631 32.6895 93.8536 34.5878 97.3566 34.5878C99.3033 34.5878 101.686 33.4676 102.61 31.6206L101.831 31.0848C101.053 32.0083 100.372 32.8833 99.1066 32.8833C97.2568 32.8833 97.2568 31.5693 97.2568 30.6943" fill="#78777A"/>
<path d="M103.316 10.187H103.439C103.744 10.187 103.823 10.1386 103.823 9.93906V9.66544C103.823 9.53433 103.872 9.43742 103.527 9.43742H103.316V10.187ZM103.564 11.2388H102.598V11.1533H102.832V9.43742H102.595V9.34621H103.761C104.057 9.34621 104.362 9.47732 104.362 9.8051C104.362 10.1329 103.957 10.2127 103.701 10.2326V10.244C104.117 10.3124 104.282 10.4664 104.282 10.74C104.282 10.9709 104.297 11.0792 104.339 11.1191C104.359 11.139 104.419 11.1618 104.567 11.1248L104.584 11.1875C104.49 11.2359 104.348 11.273 104.24 11.273C103.88 11.273 103.758 11.1191 103.749 10.6858C103.749 10.3467 103.687 10.2725 103.444 10.2725H103.316V11.1504H103.564V11.2359V11.2388ZM102.028 10.3181C102.028 11.1732 102.709 11.8544 103.538 11.8544C104.368 11.8544 105.021 11.1476 105.021 10.3181C105.021 9.48872 104.345 8.80181 103.51 8.80181C102.675 8.80181 102.028 9.49727 102.028 10.3181ZM101.711 10.3239C101.711 9.31486 102.51 8.48828 103.513 8.48828C104.516 8.48828 105.34 9.29206 105.34 10.3239C105.34 11.3556 104.51 12.1708 103.507 12.1708C102.504 12.1708 101.711 11.3271 101.711 10.3239Z" fill="#78777A"/>
<path d="M6.42164 26.6101C6.42164 32.7381 10.7512 33.5647 12.2105 33.5647C17.0759 33.5647 17.1244 28.0694 17.1244 24.1759C17.1244 20.5276 16.9277 15.1748 12.2105 15.1748C9.00113 15.1748 6.76367 18.484 6.66391 19.9433C6.51855 21.2573 6.42164 25.393 6.42164 26.6072M6.56701 17.6089H6.66391C7.5874 15.8589 9.87331 14.2029 12.1621 14.2029C18.9257 14.2029 21.5508 19.9917 21.5508 24.3697C21.5508 30.4009 17.4151 34.5851 12.2105 34.5851C9.77925 34.5851 7.6387 32.9319 6.4701 30.9852H6.37319V34.34C4.23264 34.1946 2.14055 33.9039 0 33.9523V32.7837H2.77331V1.55624H0V0.43894H1.1173C2.91867 0.43894 4.81694 0.342032 6.56701 0V17.6089Z" fill="#EF4C25"/>
<path d="M37.3327 14.6904V20.1373H36.204C35.4344 17.3155 33.69 15.3232 30.6146 15.175C26.4105 15.0781 25.7948 18.1421 25.7948 18.7264C25.7948 20.1344 26.2052 20.867 34.0492 22.3747C37.9968 23.1529 39.382 24.8545 39.382 27.9214C39.382 32.1055 36.05 34.5853 31.9998 34.5853C29.8479 34.5853 27.5905 33.7587 26.1026 32.2025L24.9739 33.9525H23.8452V27.5309H25.0252C26 31.0338 28.5111 33.6105 32.3048 33.6105C34.6135 33.6105 37.2785 31.9573 37.2785 29.4263C37.2785 27.528 34.4596 26.653 30.2041 25.6326C26.8209 24.8545 23.8481 24.4155 23.8481 20.1857C23.8481 18.1421 25.182 14.2002 30.7685 14.2002C32.3589 14.2002 33.9465 14.7845 35.537 16.0016L36.4605 14.6876H37.3327V14.6904Z" fill="#78777A"/>
</g>
<defs>
<clipPath id="clip0_275_1200">
<rect width="105.34" height="34.5879" fill="white"/>
</clipPath>
</defs>
</svg>
