<svg width="100" height="28" viewBox="0 0 100 28" fill="none" xmlns="http://www.w3.org/2000/svg">
<g id="RTIC_Logo">
<g id="Vector">
<path d="M4.53916 27.9034C4.68334 27.8605 4.80617 27.764 4.84889 27.6084C5.86887 23.9931 2.58465 17.0146 9.0089 8.88276C9.43077 8.41609 9.6871 8.36245 10.2371 8.64138C10.36 8.70575 10.4721 8.77011 10.6003 8.83448C10.3813 7.83678 9.49485 7.19847 9.1691 6.31341C9.1424 6.24368 9.18512 6.16322 9.25455 6.1364C10.2104 5.7931 10.5896 5.46054 12.2878 6.01303C12.5922 6.11494 12.9286 6.08812 13.2116 5.9433C14.5787 5.32107 16.3623 5.23525 17.8095 5.49808C19.214 5.76628 20.4636 6.35096 21.2059 7.67586C21.3661 7.96552 21.318 8.14789 21.6384 8.18008C22.4929 8.31954 23.358 8.46437 24.2178 8.6092C24.4901 8.65211 24.7731 8.68966 25.0455 8.75402C25.2431 8.79694 25.3766 8.92567 25.3392 9.15096C25.179 11.3073 23.3687 12.9916 21.6865 13.1793C20.6986 13.2759 17.1847 14.0322 18.2581 14.7134C22.4181 17.3686 25.179 24.7709 25.4353 27.8981H33.7179C31.3576 24.8299 29.0293 21.7778 26.6849 18.731C26.7757 18.6935 26.8291 18.6559 26.8878 18.6291C30.9197 16.8107 33.0878 12.2621 31.9503 7.99234C31.2187 5.20843 29.5099 3.2023 26.9786 1.85594C25.0295 0.82069 22.8987 0.407663 20.7092 0.246743C20.2874 0.214559 19.8708 0.182375 19.449 0.144828H0V27.8981H4.53916V27.9034ZM20.3835 27.9034H11.1023C11.1503 27.2544 11.2785 26.8092 11.6897 26.3479C9.35067 23.2958 9.41475 21.0107 9.49485 19.8467C9.50019 19.7556 9.62836 19.7448 9.65506 19.8307C12.448 29.6575 19.0164 22.8506 20.3835 27.9034ZM19.246 7.24674C19.4116 7.42912 19.6786 7.89579 19.748 8.12644L16.7789 7.92261C19.0164 6.8069 19.0485 7.02146 19.246 7.24674Z" fill="#232323"/>
<path d="M33.1786 7.63831V0.150192H59.5858V7.60077H50.5395V27.9035H42.102V7.63831H33.1786Z" fill="#232323"/>
<path d="M70.138 27.9142H61.7486V0.150192H70.138V27.9142Z" fill="#232323"/>
<path d="M91.5895 16.9019C90.5642 18.8008 88.5617 20.0881 86.26 20.0881C82.9118 20.0881 80.1989 17.3632 80.1989 14C80.1989 10.6368 82.9118 7.91188 86.26 7.91188C88.4655 7.91188 90.3987 9.09732 91.456 10.8674H99.8989C98.4784 4.63985 92.9299 0 86.2921 0H86.2494C78.5381 0 72.2955 6.27586 72.2955 14.0054C72.2955 21.7349 78.5488 28.0107 86.2547 28H86.2921C93.01 28 98.6119 23.2368 99.9416 16.8966L91.5895 16.9019Z" fill="#232323"/>
<path d="M97.2448 27.308V27.2973H97.2395L97.2448 27.308Z" fill="#232323"/>
<path d="M98.0191 26.5571C98.0779 26.5517 98.1313 26.541 98.1847 26.5195C98.2327 26.4981 98.2808 26.4713 98.3182 26.4337C98.3556 26.3962 98.3876 26.3586 98.409 26.305C98.4357 26.2406 98.441 26.1655 98.441 26.1012C98.441 25.7954 98.2541 25.6345 97.8696 25.6345H97.2448L97.2448 27.2973L97.5011 27.2812V26.5625H97.7041L98.1793 27.2812H98.4944L98.0191 26.5571ZM97.5118 26.3425V25.8705H97.8856C97.9604 25.8651 98.0405 25.8866 98.1046 25.9241C98.1633 25.9563 98.19 26.0261 98.19 26.0904C98.2007 26.1709 98.158 26.246 98.0939 26.2835C98.0031 26.3264 97.9016 26.3425 97.8055 26.3425H97.5118Z" fill="#232323"/>
<path d="M99.0979 25.9188C98.9537 25.5808 98.6813 25.3073 98.3396 25.1625C97.9871 25.0123 97.5919 25.0123 97.2341 25.1625C97.0633 25.2375 96.9137 25.3395 96.7802 25.4682C96.6521 25.6023 96.5452 25.7525 96.4758 25.9241C96.4011 26.1011 96.3637 26.2835 96.3637 26.4766C96.3637 26.6697 96.4064 26.8521 96.4758 27.0345C96.62 27.3724 96.8924 27.646 97.2341 27.7908C97.5866 27.941 97.9818 27.941 98.3396 27.7908C98.5104 27.7211 98.66 27.6192 98.7935 27.4851C98.9216 27.351 99.0284 27.2008 99.0979 27.0291C99.2474 26.6697 99.2474 26.2728 99.0979 25.9188ZM97.7842 27.6245C97.154 27.6245 96.6414 27.1096 96.6414 26.4766C96.6414 25.8437 97.154 25.3287 97.7842 25.3287C98.4143 25.3287 98.927 25.8437 98.927 26.4766C98.927 27.1096 98.4143 27.6245 97.7842 27.6245Z" fill="#232323"/>
</g>
</g>
</svg>
